<svg width="143" height="31" viewBox="0 0 143 31" fill="none" xmlns="http://www.w3.org/2000/svg">
<path d="M15.1125 30.77C23.459 30.77 30.2251 23.8819 30.2251 15.385C30.2251 6.8881 23.459 0 15.1125 0C6.76611 0 0 6.8881 0 15.385C0 23.8819 6.76611 30.77 15.1125 30.77Z" fill="#97E213"/>
<path d="M15.1128 21.9232C11.7393 21.9232 8.94014 19.3743 8.51569 16.0276H5.30176C5.74425 21.1903 9.97631 25.1823 15.1128 25.1823C20.2478 25.1823 24.4813 21.1889 24.9238 16.0276H21.7099C21.2854 19.3729 18.4862 21.9232 15.1128 21.9232Z" fill="white"/>
<path d="M44.3354 22.848C43.2271 22.848 42.1604 22.848 41.0729 22.848C41.0729 18.3575 41.0729 13.874 41.0729 9.36511C42.1507 9.36511 43.216 9.36511 44.327 9.36511C44.327 9.90171 44.327 10.444 44.327 11.0498C44.4408 10.9735 44.5129 10.9523 44.5393 10.9043C45.4312 9.33969 47.215 8.90052 48.7783 9.25637C50.6703 9.68707 51.8202 11.1938 52.0921 13.1242C52.253 14.268 52.185 15.3934 51.7536 16.4737C51.0379 18.2671 49.4108 19.288 47.5146 19.1751C46.3786 19.1073 45.3382 18.8206 44.5087 17.9705C44.481 17.9423 44.4269 17.9395 44.334 17.907C44.334 18.7585 44.334 19.5775 44.334 20.3966C44.3354 21.2099 44.3354 22.0205 44.3354 22.848ZM46.5936 12.0792C45.7904 12.0848 45.0677 12.2952 44.6377 13.0465C44.2244 13.7695 44.2258 14.5377 44.6308 15.2635C45.0691 16.0515 45.8279 16.2619 46.649 16.2463C47.4078 16.2322 48.0861 15.9851 48.5008 15.2748C49.175 14.1253 48.763 12.0834 46.5936 12.0792Z" fill="black"/>
<path d="M61.5341 17.9098C61.4412 17.9423 61.3871 17.9437 61.3594 17.9733C60.5299 18.8234 59.4895 19.1101 58.3535 19.1779C56.4573 19.2908 54.8316 18.2699 54.1145 16.4765C53.6831 15.3962 53.6151 14.2707 53.776 13.1269C54.0479 11.1966 55.1964 9.68843 57.0898 9.25915C58.6531 8.9033 60.4369 9.34388 61.3288 10.9071C61.3566 10.9551 61.4273 10.9763 61.5411 11.0525C61.5411 10.4453 61.5411 9.90449 61.5411 9.36788C62.6521 9.36788 63.7174 9.36788 64.7952 9.36788C64.7952 13.8754 64.7952 14.6887 64.7952 19.1793C63.7077 19.1793 62.6424 19.1793 61.5327 19.1793C61.5341 18.3489 61.5341 18.7613 61.5341 17.9098ZM57.37 15.2776C57.7848 15.9865 58.4631 16.2336 59.2218 16.2491C60.0416 16.2647 60.8004 16.0528 61.2401 15.2663C61.6451 14.5405 61.6465 13.7723 61.2331 13.0493C60.8031 12.298 60.0804 12.0876 59.2773 12.082C57.1065 12.0834 56.6945 14.1253 57.37 15.2776Z" fill="black"/>
<path d="M139.606 17.9098C139.513 17.9423 139.459 17.9437 139.431 17.9733C138.602 18.8234 137.561 19.1101 136.425 19.1779C134.529 19.2908 132.904 18.2699 132.186 16.4765C131.755 15.3962 131.687 14.2707 131.848 13.1269C132.12 11.1966 133.268 9.68843 135.162 9.25915C136.725 8.9033 138.509 9.34388 139.401 10.9071C139.428 10.9551 139.499 10.9763 139.613 11.0525C139.613 10.4453 139.613 9.90449 139.613 9.36788C140.724 9.36788 141.789 9.36788 142.867 9.36788C142.867 13.8754 142.867 14.6887 142.867 19.1793C141.78 19.1793 140.714 19.1793 139.605 19.1793C139.606 18.3489 139.606 18.7613 139.606 17.9098ZM135.442 15.2776C135.857 15.9865 136.535 16.2336 137.294 16.2491C138.113 16.2647 138.872 16.0528 139.312 15.2663C139.717 14.5405 139.718 13.7723 139.305 13.0493C138.875 12.298 138.152 12.0876 137.349 12.082C135.18 12.0834 134.768 14.1253 135.442 15.2776Z" fill="black"/>
<path d="M70.3204 17.91C70.3204 19.5748 70.3204 21.1903 70.3204 22.8368C69.2301 22.8368 68.1565 22.8368 67.0607 22.8368C67.0607 18.3562 67.0607 13.8727 67.0607 9.36524C68.1412 9.36524 69.2065 9.36524 70.3176 9.36524C70.3176 9.90467 70.3176 10.4455 70.3176 11.0852C70.4452 10.9694 70.5132 10.9313 70.5479 10.8734C71.4481 9.34689 73.1681 8.90489 74.7355 9.25086C76.6789 9.67873 77.8066 11.2066 78.0812 13.1299C78.2269 14.1509 78.1672 15.1577 77.8662 16.1462C77.2795 18.0667 75.5456 19.2854 73.5718 19.1837C72.4121 19.1244 71.3441 18.8448 70.4965 17.9735C70.4702 17.9424 70.4147 17.941 70.3204 17.91ZM74.773 14.1961C74.7952 12.9224 73.9421 12.0949 72.5911 12.0793C71.2359 12.0638 70.3467 12.8673 70.3273 14.1269C70.3079 15.3837 71.1693 16.2197 72.5203 16.2564C73.8422 16.2917 74.7522 15.4599 74.773 14.1961Z" fill="black"/>
<path d="M130.938 18.9973C129.698 18.9973 128.537 19.0029 127.377 18.9874C127.28 18.986 127.165 18.8631 127.09 18.7699C125.926 17.3112 124.768 15.8497 123.607 14.3881C123.571 14.3429 123.532 14.3006 123.448 14.2031C123.448 15.8257 123.448 17.3846 123.448 18.9704C122.339 18.9704 121.266 18.9704 120.167 18.9704C120.167 14.4827 120.167 9.99928 120.167 5.49463C121.245 5.49463 122.31 5.49463 123.423 5.49463C123.423 8.22566 123.423 10.9553 123.423 13.6863C123.449 13.6948 123.475 13.7047 123.502 13.7131C123.914 13.1836 124.328 12.6555 124.739 12.1245C125.387 11.2885 126.036 10.4526 126.674 9.60953C126.824 9.41184 126.986 9.33135 127.236 9.33558C128.2 9.35112 129.165 9.34123 130.129 9.34123C130.244 9.34123 130.358 9.34123 130.563 9.34123C129.3 10.9242 128.09 12.4408 126.856 13.9885C128.201 15.6364 129.541 17.283 130.938 18.9973Z" fill="black"/>
<path d="M90.9201 14.8286C88.3636 14.8286 85.8516 14.8286 83.3409 14.8286C83.2799 15.8835 83.936 16.711 84.9319 16.831C85.7989 16.9355 86.6048 16.8296 87.1499 16.0049C87.1874 15.9485 87.2817 15.9004 87.351 15.9004C88.4677 15.8934 89.5829 15.8962 90.7314 15.8962C90.5428 16.8 90.0906 17.4877 89.4178 18.0313C88.6105 18.6837 87.6645 18.9887 86.6575 19.1059C85.2621 19.2683 83.8847 19.2119 82.5738 18.6315C81.048 17.9551 80.1797 16.7534 79.9314 15.0885C79.7705 14.0026 79.8551 12.9336 80.3004 11.9239C80.8622 10.6544 81.8567 9.87495 83.1426 9.47814C84.6531 9.01214 86.1817 8.9952 87.6895 9.48238C89.8589 10.1842 91.0241 11.9183 90.952 14.2723C90.945 14.4389 90.9326 14.6055 90.9201 14.8286ZM87.3899 13.0889C87.308 12.0341 86.3884 11.3619 85.2149 11.4608C84.151 11.5497 83.3687 12.26 83.4283 13.0889C84.7433 13.0889 86.0569 13.0889 87.3899 13.0889Z" fill="black"/>
<path d="M107.353 9.3426C108.502 9.3426 109.581 9.33695 110.661 9.35531C110.746 9.35672 110.871 9.51629 110.905 9.62644C111.575 11.739 112.233 13.8543 112.896 15.9697C112.931 16.0798 112.992 16.1815 113.04 16.286C113.073 16.2817 113.107 16.2761 113.139 16.2719C113.22 16.0304 113.306 15.7917 113.383 15.5488C113.999 13.5818 114.612 11.6133 115.225 9.64479C115.273 9.48805 115.291 9.33413 115.529 9.33695C116.552 9.35107 117.575 9.3426 118.598 9.34542C118.644 9.34542 118.688 9.36096 118.766 9.37508C118.636 9.76906 118.515 10.1517 118.383 10.533C117.45 13.2471 116.511 15.9612 115.583 18.6767C115.502 18.9111 115.408 19.0085 115.144 19.0057C113.663 18.9902 112.182 18.9986 110.67 18.9986C109.572 15.7974 108.474 12.6032 107.353 9.3426Z" fill="black"/>
<path d="M93.1267 9.36236C94.2059 9.36236 95.2698 9.36236 96.3767 9.36236C96.3767 9.91167 96.3767 10.4539 96.3767 11.0866C96.7998 10.6347 97.1091 10.1772 97.5308 9.88767C97.9733 9.58124 98.5059 9.35247 99.0302 9.24233C99.5435 9.13501 100.097 9.21832 100.65 9.21832C100.65 10.4469 100.65 11.6514 100.65 12.7712C99.9541 12.7119 99.2591 12.5905 98.5669 12.6074C97.2256 12.6399 96.4031 13.5352 96.3864 14.9091C96.3725 16.1306 96.3823 17.3521 96.3823 18.5722C96.3823 18.7007 96.3823 18.8306 96.3823 18.9789C95.2864 18.9789 94.2211 18.9789 93.1267 18.9789C93.1267 15.7861 93.1267 12.5975 93.1267 9.36236Z" fill="black"/>
<path d="M105.964 18.9872C104.874 18.9872 103.818 18.9872 102.731 18.9872C102.731 15.786 102.731 12.596 102.731 9.37354C103.795 9.37354 104.868 9.37354 105.964 9.37354C105.964 12.5692 105.964 15.7619 105.964 18.9872Z" fill="black"/>
<path d="M104.343 8.17899C105.313 8.17899 106.099 7.37859 106.099 6.39125C106.099 5.40391 105.313 4.60352 104.343 4.60352C103.373 4.60352 102.587 5.40391 102.587 6.39125C102.587 7.37859 103.373 8.17899 104.343 8.17899Z" fill="black"/>
</svg>
